<?xml version="1.0" encoding="utf-8"?>
<!-- Generator: Adobe Illustrator 26.0.1, SVG Export Plug-In . SVG Version: 6.00 Build 0)  -->
<svg version="1.1" id="Layer_1" xmlns="http://www.w3.org/2000/svg" xmlns:xlink="http://www.w3.org/1999/xlink" x="0px" y="0px"
	 viewBox="0 0 1920 1080" style="enable-background:new 0 0 1920 1080;" xml:space="preserve">
<g>
	<g>
		<g>
			<path d="M332.96,401.12l55.65,86.35h-47.97l-48.21-75.07v75.07H249.5v-167.9h42.93v70.52l45.81-70.52h47.97L332.96,401.12z"/>
			<path d="M538.14,465.88c-17.11,16.79-37.9,25.19-62.36,25.19c-24.78,0-45.66-8.39-62.6-25.19
				c-16.95-16.94-25.43-37.74-25.43-62.36c0-24.63,8.48-45.34,25.43-62.12c16.94-16.95,37.82-25.43,62.6-25.43
				c24.63,0,45.42,8.48,62.36,25.43c17.11,16.79,25.66,37.5,25.66,62.12C563.8,427.99,555.24,448.78,538.14,465.88z M443.4,436.38
				c8.79,8.48,19.58,12.71,32.38,12.71c12.79,0,23.59-4.24,32.38-12.71c8.63-8.63,12.95-19.58,12.95-32.86
				c0-13.44-4.32-24.31-12.95-32.62c-8.63-8.63-19.43-12.95-32.38-12.95c-12.95,0-23.74,4.32-32.38,12.95
				c-8.63,8.32-12.95,19.19-12.95,32.62C430.44,416.8,434.76,427.75,443.4,436.38z"/>
			<path d="M718.96,487.47h-46.05l-29.27-54.21h-15.35v54.21h-42.93v-167.9h67.15c17.11,0,31.43,5.52,42.94,16.55
				c11.67,10.72,17.51,24.55,17.51,41.49c0,9.92-2.56,19.11-7.67,27.59c-5.12,8.48-12.08,15.19-20.87,20.14L718.96,487.47z
				 M652.04,359.15h-23.75v37.65h23.75c5.28,0.16,9.59-1.52,12.95-5.04c3.36-3.51,5.04-8.07,5.04-13.67c0-5.6-1.68-10.15-5.04-13.67
				C661.63,360.91,657.32,359.15,652.04,359.15z"/>
			<path d="M877.1,465.88c-17.11,16.79-37.91,25.19-62.37,25.19c-24.78,0-45.66-8.39-62.6-25.19
				c-16.95-16.94-25.43-37.74-25.43-62.36c0-24.63,8.48-45.34,25.43-62.12c16.94-16.95,37.82-25.43,62.6-25.43
				c24.63,0,45.42,8.48,62.37,25.43c17.1,16.79,25.66,37.5,25.66,62.12C902.76,427.99,894.2,448.78,877.1,465.88z M782.35,436.38
				c8.79,8.48,19.58,12.71,32.38,12.71s23.59-4.24,32.39-12.71c8.63-8.63,12.95-19.58,12.95-32.86c0-13.44-4.32-24.31-12.95-32.62
				c-8.64-8.63-19.43-12.95-32.39-12.95c-12.95,0-23.74,4.32-32.38,12.95c-8.63,8.32-12.95,19.19-12.95,32.62
				C769.4,416.8,773.72,427.75,782.35,436.38z"/>
			<path d="M1030.34,400.64c14.07,8.32,21.11,20.87,21.11,37.66c0,15.03-5.11,26.94-15.35,35.74c-10.4,8.95-24.06,13.43-41.02,13.43
				h-70.75v-167.9h66.2c16.96,0,30.42,4.28,40.42,12.83c9.99,8.56,14.99,20.19,14.99,34.9
				C1045.93,381.38,1040.74,392.49,1030.34,400.64z M989.32,357.95h-22.07v26.38h22.07c4,0,7.27-1.16,9.84-3.47
				c2.55-2.32,3.84-5.56,3.84-9.71c0-4-1.29-7.2-3.84-9.6C996.6,359.15,993.32,357.95,989.32,357.95z M967.25,449.1h26.63
				c4.32,0,7.83-1.32,10.55-3.96c2.72-2.64,4.09-6.04,4.09-10.2c0-4.32-1.37-7.76-4.09-10.31c-2.72-2.56-6.23-3.84-10.55-3.84
				h-26.63V449.1z"/>
			<path d="M1156.22,401.12l55.64,86.35h-47.97l-48.21-75.07v75.07h-42.93v-167.9h42.93v70.52l45.81-70.52h47.98L1156.22,401.12z"/>
			<path d="M1361.39,465.88c-17.11,16.79-37.91,25.19-62.37,25.19c-24.78,0-45.65-8.39-62.59-25.19
				c-16.96-16.94-25.43-37.74-25.43-62.36c0-24.63,8.47-45.34,25.43-62.12c16.94-16.95,37.82-25.43,62.59-25.43
				c24.63,0,45.42,8.48,62.37,25.43c17.1,16.79,25.66,37.5,25.66,62.12C1387.06,427.99,1378.49,448.78,1361.39,465.88z
				 M1266.65,436.38c8.8,8.48,19.58,12.71,32.38,12.71c12.79,0,23.59-4.24,32.39-12.71c8.63-8.63,12.95-19.58,12.95-32.86
				c0-13.44-4.32-24.31-12.95-32.62c-8.64-8.63-19.43-12.95-32.39-12.95c-12.95,0-23.74,4.32-32.38,12.95
				c-8.63,8.32-12.95,19.19-12.95,32.62C1253.7,416.8,1258.02,427.75,1266.65,436.38z"/>
			<path d="M1492.82,487.47h-51.09l-54.2-167.9h47l32.62,115.61l32.86-115.61h47.02L1492.82,487.47z"/>
		</g>
		<g>
			<g>
				<path d="M410.14,739.68h-46.3l-7.2-24.23h-55.88l-7.2,24.23h-46.53l55.41-167.89h52.29L410.14,739.68z M328.59,621.43
					l-16.8,57.09h33.82L328.59,621.43z"/>
				<path d="M549.43,739.68h-46.05l-29.25-54.21h-15.36v54.21h-42.93V571.78H483c17.1,0,31.41,5.52,42.93,16.54
					c11.67,10.72,17.52,24.56,17.52,41.5c0,9.92-2.56,19.12-7.68,27.59c-5.13,8.47-12.08,15.19-20.87,20.14L549.43,739.68z
					 M482.52,611.36h-23.75v37.66h23.75c5.27,0.16,9.59-1.52,12.95-5.04c3.36-3.53,5.04-8.08,5.04-13.68
					c0-5.6-1.68-10.15-5.04-13.68C492.11,613.11,487.79,611.36,482.52,611.36z"/>
				<path d="M547.72,571.78h125.93v41.49h-41.5v126.41h-42.93V613.27h-41.5V571.78z"/>
				<path d="M789.97,743.27c-17.42,0-32.01-3.67-43.78-11.02c-11.75-7.35-20.03-17.59-24.82-30.71l36.7-21.34
					c6.23,14.87,17.27,22.3,33.09,22.3c13.12,0,19.68-3.76,19.68-11.27c0-4.8-3.76-8.8-11.27-12c-2.56-0.96-9.6-3.11-21.11-6.48
					c-16.32-4.63-28.71-11.1-37.18-19.43c-8.48-8.3-12.71-19.34-12.71-33.09c0-15.51,5.52-28.07,16.55-37.66
					c11.35-9.59,25.26-14.39,41.73-14.39c14.07,0,26.53,3.32,37.41,9.96c10.87,6.64,19.19,16.11,24.94,28.42l-35.97,21.11
					c-5.27-12.47-13.99-18.7-26.14-18.7c-4.96,0-8.8,0.99-11.52,2.99c-2.72,2-4.07,4.67-4.07,8.03c0,3.68,1.95,6.81,5.88,9.36
					c3.92,2.56,11.54,5.52,22.9,8.87c8.47,2.56,15.03,4.8,19.66,6.71c5.28,2.25,10.7,5.28,16.31,9.12
					c11.67,7.68,17.5,19.91,17.5,36.7c0,16.47-5.83,29.34-17.5,38.61C824.59,738.64,809.16,743.27,789.97,743.27z"/>
				<path d="M854.06,571.78h125.93v41.49h-41.5v126.41h-42.93V613.27h-41.5V571.78z"/>
				<path d="M986.55,684.52V571.78h42.93v108.65c0,14.08,7.83,21.11,23.5,21.11c15.68,0,23.51-7.03,23.51-21.11V571.78h42.93v112.73
					c0,17.59-6.23,31.82-18.71,42.7c-12.15,10.71-28.06,16.06-47.73,16.06c-19.66,0-35.66-5.35-47.97-16.06
					C992.7,716.33,986.55,702.11,986.55,684.52z"/>
				<path d="M1141.3,571.78h68.36c23.02,0,42.37,8.07,58.04,24.22c15.68,16.16,23.51,36.06,23.51,59.73
					c0,23.83-7.83,43.81-23.51,59.96c-15.51,15.99-34.86,23.98-58.04,23.98h-68.36V571.78z M1185.43,698.18h24.23
					c11.52,0,21.03-3.84,28.54-11.5c7.35-7.83,11.03-18.15,11.03-30.94c0-12.96-3.68-23.19-11.03-30.7
					c-7.35-7.83-16.87-11.76-28.54-11.76h-24.23V698.18z"/>
				<path d="M1306.4,739.68V571.78h42.93v167.89H1306.4z"/>
				<path d="M1515.01,718.09c-17.11,16.79-37.89,25.18-62.36,25.18c-24.79,0-45.66-8.39-62.61-25.18
					c-16.96-16.94-25.43-37.74-25.43-62.36c0-24.62,8.47-45.34,25.43-62.12c16.94-16.94,37.82-25.43,62.61-25.43
					c24.62,0,45.4,8.48,62.36,25.43c17.11,16.79,25.66,37.5,25.66,62.12C1540.67,680.2,1532.12,700.98,1515.01,718.09z
					 M1420.26,688.59c8.8,8.47,19.58,12.71,32.39,12.71c12.79,0,23.58-4.24,32.38-12.71c8.64-8.64,12.95-19.58,12.95-32.86
					c0-13.43-4.31-24.31-12.95-32.62c-8.64-8.64-19.43-12.95-32.38-12.95c-12.96,0-23.75,4.31-32.39,12.95
					c-8.63,8.32-12.95,19.19-12.95,32.62C1407.31,669.01,1411.63,679.95,1420.26,688.59z"/>
			</g>
		</g>
	</g>
</g>
</svg>
